# xmcd CD database file
#
# Track frame offsets:
#	150
#	23430
#	43535
#	66675
#
# Disc length: 1154 seconds
#
# Revision: 3
# Processed by: cddbd v1.5.1PL0 Copyright (c) Steve Scherf et al.
# Submitted via: CDex 1.51
#
DISCID=2e048004
DTITLE=大塚愛 - プラネタリウム
DYEAR=2005
DGENRE=Pop
TTITLE0=プラネタリウム
TTITLE1=drop.
TTITLE2=プラネタリウム (Instrumental)
TTITLE3=drop. (Instrumental)
EXTD=YEAR: 2005
EXTT0=
EXTT1=
EXTT2=
EXTT3=
PLAYORDER=
